<svg xmlns="http://www.w3.org/2000/svg" height="800" width="1200" viewBox="-44.7 -74.5 387.4 447"><defs><linearGradient x1="0" y1="0" x2="1" y2="0" gradientUnits="userSpaceOnUse" gradientTransform="scale(98.68864 -98.68864) rotate(-32.85 -12.597 -4.741)" spreadMethod="pad" id="j"><stop offset="0" stop-color="#ffeb6e"/><stop offset=".475" stop-color="#fff"/><stop offset=".525" stop-color="#fff"/><stop offset="1" stop-color="#ffe400"/></linearGradient><linearGradient x1="0" y1="0" x2="1" y2="0" gradientUnits="userSpaceOnUse" gradientTransform="scale(100.2359 -100.2359) rotate(-30.75 -13.21 -4.557)" spreadMethod="pad" id="i"><stop offset="0" stop-color="#ffea61"/><stop offset=".46" stop-color="#fff"/><stop offset=".54" stop-color="#fff"/><stop offset="1" stop-color="#ffe400"/></linearGradient><linearGradient x1="0" y1="0" x2="1" y2="0" gradientUnits="userSpaceOnUse" gradientTransform="matrix(89.3902 48.9802 48.9802 -89.3902 39.877 733.38)" spreadMethod="pad" id="h"><stop offset="0" stop-color="#ffe851"/><stop offset=".445" stop-color="#fff"/><stop offset=".555" stop-color="#fff"/><stop offset="1" stop-color="#ffe400"/></linearGradient><linearGradient x1="0" y1="0" x2="1" y2="0" gradientUnits="userSpaceOnUse" gradientTransform="scale(103.7246 -103.7246) rotate(-26.76 -14.542 -4.15)" spreadMethod="pad" id="g"><stop offset="0" stop-color="#ffe73f"/><stop offset=".43" stop-color="#fff"/><stop offset=".57" stop-color="#fff"/><stop offset="1" stop-color="#ffe400"/></linearGradient><linearGradient x1="0" y1="0" x2="1" y2="0" gradientUnits="userSpaceOnUse" gradientTransform="matrix(95.9529 44.4788 44.4788 -95.9529 24.627 717.067)" spreadMethod="pad" id="f"><stop offset="0" stop-color="#ffe528"/><stop offset=".415" stop-color="#fff"/><stop offset=".585" stop-color="#fff"/><stop offset="1" stop-color="#ffe400"/></linearGradient><linearGradient x1="0" y1="0" x2="1" y2="0" gradientUnits="userSpaceOnUse" gradientTransform="matrix(99.3767 42.2853 42.2853 -99.3767 16.44 708.317)" spreadMethod="pad" id="e"><stop offset="0" stop-color="#ffe400"/><stop offset=".4" stop-color="#fff"/><stop offset=".6" stop-color="#fff"/><stop offset="1" stop-color="#ffe400"/></linearGradient><linearGradient x1="0" y1="0" x2="1" y2="0" gradientUnits="userSpaceOnUse" gradientTransform="scale(110.83932 -110.83932) rotate(-21.3 -16.734 -3.342)" spreadMethod="pad" id="d"><stop offset="0" stop-color="#ffe400"/><stop offset=".385" stop-color="#fff"/><stop offset=".615" stop-color="#fff"/><stop offset="1" stop-color="#ffe400"/></linearGradient><linearGradient x1="0" y1="0" x2="1" y2="0" gradientUnits="userSpaceOnUse" gradientTransform="scale(113.78433 -113.78433) rotate(-19.62 -17.531 -3.009)" spreadMethod="pad" id="c"><stop offset="0" stop-color="#ffe400"/><stop offset=".37" stop-color="#fff"/><stop offset=".63" stop-color="#fff"/><stop offset="1" stop-color="#ffe400"/></linearGradient><linearGradient x1="0" y1="0" x2="1" y2="0" gradientUnits="userSpaceOnUse" gradientTransform="matrix(111.492 36.2475 36.2475 -111.492 -10.81 679.442)" spreadMethod="pad" id="b"><stop offset="0" stop-color="#ffe400"/><stop offset=".355" stop-color="#fff"/><stop offset=".645" stop-color="#fff"/><stop offset="1" stop-color="#ffe400"/></linearGradient><linearGradient x1="0" y1="0" x2="1" y2="0" gradientUnits="userSpaceOnUse" gradientTransform="scale(121.0718 -121.0718) rotate(-16.47 -19.175 -2.187)" spreadMethod="pad" id="a"><stop offset="0" stop-color="#ffe400"/><stop offset=".34" stop-color="#fff"/><stop offset=".66" stop-color="#fff"/><stop offset="1" stop-color="#ffe400"/></linearGradient><clipPath clipPathUnits="userSpaceOnUse" id="k"><path d="M28.346 638.929h121.89V762.52H28.346z"/></clipPath></defs><path d="M0 298h298V0H0z" fill="#ffe100"/><path d="M36.056 689a530.018 530.018 0 01-7.71-2.345v-6.661a516.548 516.548 0 0164.387 22.35A516.45 516.45 0 0136.056 689" fill="url(#a)" transform="matrix(3.50667 0 0 -3.50667 -99.4 2673.903)"/><path d="M43.727 700.255a546.168 546.168 0 01-15.381-5.257v-5.609a537.358 537.358 0 0169.752 25.455 537.882 537.882 0 01-54.371-14.589" fill="url(#b)" transform="matrix(3.50667 0 0 -3.50667 -99.4 2673.903)"/><path d="M50.977 711.039a547.106 547.106 0 01-22.631-8.635v-4.577a549.942 549.942 0 0124.46 8.077 545.292 545.292 0 0150.433 20.872 544.326 544.326 0 01-52.262-15.737" fill="url(#c)" transform="matrix(3.50667 0 0 -3.50667 -99.4 2673.903)"/><path d="M57.875 721.324a559.712 559.712 0 01-29.529-12.498v-3.359a560.997 560.997 0 0131.36 11.164 556.866 556.866 0 0148.437 21.589 556.551 556.551 0 01-50.268-16.896" fill="url(#d)" transform="matrix(3.50667 0 0 -3.50667 -99.4 2673.903)"/><path d="M64.48 731.187a575.295 575.295 0 01-36.134-16.872v-1.983a574.027 574.027 0 0137.948 14.589 572.932 572.932 0 0146.578 22.341 573.875 573.875 0 01-48.392-18.075" fill="url(#e)" transform="matrix(3.50667 0 0 -3.50667 -99.4 2673.903)"/><path d="M70.866 740.703a598.95 598.95 0 01-42.52-21.806v-.473a597.475 597.475 0 0144.307 18.424 598.066 598.066 0 0140.674 20.77v.825a598.433 598.433 0 01-42.461-17.74" fill="url(#f)" transform="matrix(3.50667 0 0 -3.50667 -99.4 2673.903)"/><path d="M103.536 762.52a631.292 631.292 0 01-26.506-12.607 629.611 629.611 0 01-43.262-23.979 632.586 632.586 0 0174.842 36.586z" fill="url(#g)" transform="matrix(3.50667 0 0 -3.50667 -99.4 2673.903)"/><path d="M89.754 762.52a673.338 673.338 0 01-48.472-28.502 672.114 672.114 0 0143.42 21.797 686.339 686.339 0 0111.947 6.705z" fill="url(#h)" transform="matrix(3.50667 0 0 -3.50667 -99.4 2673.903)"/><path d="M80.243 762.52a724.488 724.488 0 01-31.502-20.473 727.596 727.596 0 0137.426 20.473z" fill="url(#i)" transform="matrix(3.50667 0 0 -3.50667 -99.4 2673.903)"/><path d="M73.698 762.52a794.272 794.272 0 01-17.479-12.437 792.232 792.232 0 0121.215 12.437z" fill="url(#j)" transform="matrix(3.50667 0 0 -3.50667 -99.4 2673.903)"/><g clip-path="url(#k)" transform="matrix(3.50667 0 0 -3.50667 -99.4 2673.903)"><path d="M82.844 690.81c.402 1.108 1.498 1.353 1.992 1.357 1.225.01 1.561-.715 1.453-1.4-.293-1.897-.95-4.306-1.193-5.075l-.008-.027c-.267-.84-1.058-1.33-1.988-1.33-.942 0-1.512.593-1.43 1.348.14 1.275.945 4.494 1.174 5.128m6.274-8.801c2.435 1.99 3.638 5.358 3.601 8.526-.04 3.045-2.619 5.933-7.105 5.933-8.55 0-9.795-6.666-10.043-7.883-.623-3.078.072-7.072 4.088-8.13 2.65-.698 6.794-.623 9.46 1.554m18.86 14.02c-2.377.707-5.319-.467-6.774-2.477.143.62.295 1.349.467 2.183h-5.637l-3.3-15.096h5.61l1.872 8.563c.346 1.574 1.61 2.249 2.731 1.958.486-.131 1.15-.496.93-1.81l-1.905-8.711h5.545l2.537 11.626c.541 2.563-1.563 3.61-2.076 3.764m-53.422 3.12c0-.476.111-2.16 3.15-2.16 2.528 0 3.5 1.618 3.5 2.826 0 .812-.666 2.226-3.152 2.226-2.293 0-3.498-1.535-3.498-2.891m1.885-18.511l3.384 15.185h-5.554l-3.385-15.185zM38.73 691.033l3.984-10.393h5.422l4.67 20.677-5.584-.002-2.36-10.517-3.912 10.525h-5.66l-4.613-20.683h5.691c.647 3.316 1.512 6.816 2.362 10.393m20.42-10.393l4.59 20.677 5.654-.002-2.465-10.994 4.566 5.514h6.323l-5.674-6.897 2.34-8.298h-5.64l-2.335 7.864-1.846-7.864z" fill="#150301"/></g></svg>