<svg xmlns="http://www.w3.org/2000/svg" height="800" width="1200" clip-rule="evenodd" fill-rule="evenodd" image-rendering="optimizeQuality" text-rendering="geometricPrecision" shape-rendering="geometricPrecision" viewBox="-35.800605 -11.217625 310.27191 67.30575"><g fill-rule="nonzero"><path d="M205.1444 37.0918c.487.0228.78.451.78.879 0 .481-.4387.786-.6707.8634l.6114 1.3145h-.54l-.6424-1.342h-.7282v1.342h-.5632v-3.0569zm-1.19 1.2916h1.0911c.299-.0835.3265-.2414.3356-.4432.008-.197-.182-.4203-.3734-.4203h-1.0533v.8635z" fill="#fff"/><path d="M204.5524 41.3081c1.4813 0 2.6787-1.199 2.6787-2.6787 0-1.48-1.1974-2.6803-2.6787-2.6803-1.48 0-2.6791 1.2003-2.6791 2.6803 0 1.4797 1.1991 2.6787 2.6791 2.6787zm-2.2432-2.7c0-1.2383 1.0016-2.2434 2.2432-2.2434 1.2387 0 2.2416 1.005 2.2416 2.2433 0 1.2403-1.0029 2.245-2.2416 2.245-1.2416 0-2.2432-1.0047-2.2432-2.245z" fill="#fff"/><path fill="#F6D900" d="M233.7274 41.8605v-1.3763L116.8624 37.47 0 40.4842v1.3763l116.8624 3.01z"/><g fill="#343E8B"><path d="M51.608 22.4831h14.0305v6.0289H40.4493V1.7351H51.608zm130.2554 7.1031c-8.6951 0-16.0097-2.5878-16.0097-9.7152V1.7351h10.7991v17.3085c0 3.3498 2.4755 4.8798 5.2106 4.8798 2.738 0 5.2107-1.53 5.2107-4.8798V1.7351h10.7977V19.871c0 7.1274-7.3099 9.7152-16.0083 9.7152zm38.635-20.7315h11.4138c-.598-6.1498-9.2557-7.9865-15.9644-7.9865-6.7053 0-15.4404 2.1933-15.4404 8.9021 0 4.9022 4.795 6.47 8.1599 7.1515 2.3875.4814 6.3671 1.1598 8.3582 1.5982 2.77.6058 4.203 1.169 4.203 2.8018 0 1.7454-1.6103 2.6382-4.9163 2.6382-3.1342 0-5.0071-.9745-5.5277-3.1846l-11.6307.0017c.683 7.2947 10.0294 8.8896 17.4058 8.8896 7.4221 0 16.2919-1.7665 16.2919-8.9959 0-3.925-2.5286-6.537-8.7516-7.7817-3.2568-.651-7.7726-1.4995-9.5086-1.7984-2.2997-.401-3.1206-1.2296-3.1206-2.3603 0-1.1655 1.117-2.3892 4.342-2.3892 2.726 0 4.2.7956 4.6856 2.5134zm-66.76 9.7991c8.0352 0 10.0797-5.1103 10.0797-8.3754 0-3.0053-1.7287-8.5433-10.0689-8.5433h-21.601l.001 26.777h10.6032v-9.8583h10.9857zm-10.987-5.8464V7.5847h7.0788c1.7639 0 3.2722.8239 3.2722 2.5255 0 1.4994-.8664 2.6972-3.2856 2.6972h-7.0655zm-63.6899-10.42l.3039-.6523h11.1952L78.9114 19.4963v9.0157H68.3203v-9.0157L56.7093 1.7351H67.865l.3111.6523 5.048 8.8656c.3325.5691.4327.5691.8001 0l5.0373-8.8656zm33.8589 26.1246l.1974-.533 5.6887-13.2292c.147-.3476.49-.2547.4947.0505V28.512h9.134V1.735h-11.039l-.203.5767-6.8043 15.36c-.2509.5828-.4845.5799-.735 0l-6.8011-15.36-.2035-.5766H91.6089V28.512h9.1387V14.8003c.002-.3052.3446-.3981.4936-.0505l5.6826 13.2291.2017.5331h5.795zM37.9281 15.1251c0 8.9958-7.8014 14.4125-18.6839 14.4125S.5602 24.1209.5602 15.1251C.5601 6.1245 8.3616.7103 19.2441.7103s18.684 5.4143 18.684 14.4148zm-11.2332 0c0-5.4172-2.8033-8.761-7.4507-8.761-4.6492 0-7.4492 3.3438-7.4492 8.761 0 5.4154 2.8 8.7575 7.4492 8.7575 4.6474 0 7.4507-3.342 7.4507-8.7575zM236.2214 1.3402c.5705.0258.915.5296.915 1.0322 0 .5632-.5144.9216-.7877 1.014l.7181 1.542h-.6346l-.7542-1.5755h-.8544v1.5755h-.6605V1.3402zm-1.3978 1.5165h1.2807c.3507-.0989.3843-.2839.3933-.5206.009-.2322-.2125-.495-.437-.495h-1.237z"/><path d="M235.5244 6.2884c1.7395 0 3.1463-1.407 3.1463-3.1434 0-1.7377-1.4068-3.145-3.1463-3.145-1.7364 0-3.1433 1.4073-3.1433 3.145 0 1.7365 1.4069 3.1434 3.1433 3.1434zm-2.6318-3.1678c0-1.4556 1.1763-2.635 2.6318-2.635 1.4554 0 2.633 1.1794 2.633 2.635 0 1.4541-1.1776 2.6334-2.633 2.6334-1.4555 0-2.6318-1.1793-2.6318-2.6334z"/></g></g></svg>