<?xml version="1.0" standalone="no"?><!DOCTYPE svg PUBLIC "-//W3C//DTD SVG 1.1//EN" "http://www.w3.org/Graphics/SVG/1.1/DTD/svg11.dtd"><svg t="1679659610036" class="icon" viewBox="0 0 2424 1024" version="1.1" xmlns="http://www.w3.org/2000/svg" p-id="3156" xmlns:xlink="http://www.w3.org/1999/xlink" width="473.4375" height="200"><path d="M1305.859121 407.513668c0 52.059838-0.179002 100.621672 0.179002 149.16859 0 11.187644 8.010353 16.028165 18.302986 16.826216 9.695958 0.648883 19.436667 0.671259 29.155001 0.544466s14.476812 3.460711 13.805553 13.544508a142.456003 142.456003 0 0 0 0 15.379281c0.335629 8.010353-2.662659 12.455577-11.478523 12.433202q-81.460966-0.119335-163.018893 0c-7.518097 0-11.448689-3.490545-11.478523-11.090685v-18.429779c0-8.532443 4.572017-11.761943 12.642038-11.732109 9.203702 0 18.429779 0 27.655857-0.33563a19.153247 19.153247 0 0 0 21.167022-22.076951q-0.641425-88.360014 0-176.720027a19.89909 19.89909 0 0 0-20.42118-23.076381c-5.586364-0.596674-11.269687-0.492256-16.878425-0.544465-23.337426 0-30.579561-10.441801-24.038519-33.652434a10.232965 10.232965 0 0 1 11.478523-7.831351H1334.313029a28.946165 28.946165 0 0 1 19.436667 11.11306l157.671199 148.422746c4.422849 4.13197 8.950115 8.204272 13.10446 11.933487 4.13197-1.238099 3.952968-4.005177 4.057386-6.459 0.745843-31.743076 1.760189-63.456318 2.095819-95.16956 0.261045-21.114814-6.354582-27.655856-27.089016-28.431533-4.601851-0.179002-9.226077 0-13.857762 0-18.690824 0-19.391917-0.745843-19.466501-20.264552 0-20.600182 0.596674-21.375859 21.629446-21.375859 46.630101 0 93.230368 0.671259 139.838093-0.365463 17.81073-0.410214 18.116525 8.78603 18.273153 21.972533s-1.491686 22.46479-17.937523 20.08555a54.588245 54.588245 0 0 0-12.276575 0c-18.556572 1.603562-23.158423 6.384416-23.188257 25.023031v216.645001c0 22.121702-0.208836 20.935811-22.22612 22.487164a92.790321 92.790321 0 0 1-80.640539-28.58816c-57.817745-59.346723-119.543707-114.859814-179.74815-172.065967-1.573729-1.491686-3.617338-3.102707-8.204273-7.339095zM298.583306 554.668482c0-14.834816 0.208836-29.721841 0-44.586492-0.156627-8.868073 3.356293-13.365506 12.67933-13.10446a137.041183 137.041183 0 0 0 18.42978 0 20.756809 20.756809 0 0 1 22.897378 13.231254 107.602762 107.602762 0 0 0 56.945109 49.225634 250.08114 250.08114 0 0 0 150.742317 11.038476 57.646201 57.646201 0 0 0 21.092439-8.950116 24.888779 24.888779 0 0 0 12.2542-23.210632 21.554861 21.554861 0 0 0-16.207168-18.504364 323.173748 323.173748 0 0 0-64.142493-14.760232c-42.341504-7.160092-84.757592-14.171016-127.039429-21.711488a207.57555 207.57555 0 0 1-42.386254-13.425173 76.45636 76.45636 0 0 1-17.378141-130.164511 133.953393 133.953393 0 0 1 43.863024-24.814194 307.324586 307.324586 0 0 1 216.145285 4.527266c4.266222 1.812398 8.241565 4.13197 12.328784 6.279998 7.495722 3.930592 13.827928 2.506032 15.118237-6.123371 1.678147-11.142894 8.607028-12.328784 17.579518-12.328784 42.31167 0 34.167065-1.782565 34.71153 34.070106 0.387838 21.972533-0.261045 44.004734 0.179003 66.066768 0.208836 10.031588-4.13197 14.006931-13.671301 13.805553-7.704558-0.156627-15.379282 0-23.054006 0a11.374105 11.374105 0 0 1-11.530732-5.966743 131.268358 131.268358 0 0 0-95.333645-68.162587 188.8176 188.8176 0 0 0-98.660105 1.491686 81.886097 81.886097 0 0 0-26.440132 11.985696 20.495764 20.495764 0 0 0 2.043609 37.866446 223.887135 223.887135 0 0 0 77.127619 18.7132 981.454732 981.454732 0 0 1 125.465701 21.375859 214.869894 214.869894 0 0 1 38.642123 14.916858 76.970992 76.970992 0 0 1 13.052251 131.268359 171.3425 171.3425 0 0 1-84.712842 33.48089 350.546184 350.546184 0 0 1-196.977121-24.038518c-9.695958-4.393015-16.028165-3.020664-18.355195 7.622514-1.991401 8.78603-7.316719 11.038476-15.558284 10.881849-47.308818-0.790594-38.89571 5.921993-39.79818-38.082741-0.179002-6.667836 0-13.365506 0-19.981132v0.074584z m629.334819 66.611233a312.85874 312.85874 0 0 1-143.507641-32.071247 140.457143 140.457143 0 0 1-79.298022-140.85244 135.43762 135.43762 0 0 1 84.779968-121.99753 329.118116 329.118116 0 0 1 295.898271 6.511208 130.194345 130.194345 0 0 1 72.913607 100.547088 147.460609 147.460609 0 0 1-91.37322 161.989629 355.662667 355.662667 0 0 1-139.420421 25.873292z m-116.575252-163.436565c0 68.617551 32.071247 109.154115 97.623383 117.582141 64.724251 8.323607 133.602847-13.365506 142.456002-98.220058 6.615627-64.142493-19.026454-128.12836-98.555686-137.041183-73.838452-8.271398-143.634434 25.97771-141.538616 117.686559z m1062.199689 154.777328c-32.235332 0-64.515415-0.566841-96.720913 0.261045-16.028165 0.387838-15.535909-9.30812-15.304698-20.033341s-2.453823-22.875003 14.991444-21.920324c9.173868 0.514632 18.429779 0.261045 27.596188 0 16.803842-0.544465 21.062605-4.65406 21.375859-20.988021 0.261045-15.356906 0-30.706354 0-46.06326a25.172199 25.172199 0 0 0-6.794629-18.09415q-54.871665-61.06962-109.55687-122.318243a45.645588 45.645588 0 0 0-36.546304-12.254199c-18.056858-0.38038-18.802701-1.461852-18.690825-22.942129 0-19.391917 1.320142-20.935811 19.309874-21.010396h164.286826c11.679901 0 20.935811 0 20.600182 16.542796-0.566841 26.104503 0.358005 26.104503-18.869827 27.447021-4.989689 0.387838-11.11306-0.984513-13.701135 4.676435s2.662659 9.360329 5.966744 13.000042c15.662702 17.549685 31.713242 34.741364 47.30136 52.470052 8.950115 10.158381 17.318473 11.187644 26.850346 0.745843 16.565172-18.168734 33.600225-35.875046 50.247439-53.916987 3.363752-3.617338 8.345983-7.391304 5.683323-13.126836-2.297196-5.041898-8.010353-4.057386-12.358617-3.878383-22.375288 0.932304-14.58123-15.76712-16.028165-27.006973-1.655771-12.67933 4.340806-17.154388 16.803841-17.057428 42.468297 0.440047 84.988804 0.701092 127.427267 0 17.057428-0.335629 17.393057 9.173868 17.154388 21.584695s1.059097 24.73961-17.445266 22.487164a48.643877 48.643877 0 0 0-46.242263 21.711489c-30.035095 38.358703-64.888336 72.346766-97.518965 108.378438a38.381078 38.381078 0 0 0-11.500898 30.10968c0.745843 13.365506 0.313254 26.723553 0.208836 39.932431a17.579518 17.579518 0 0 0 19.89909 19.80213c10.232965 0 20.473389 0.365463 30.706354 0 9.695958-0.261045 14.290351 3.952968 13.857761 13.72351a122.95221 122.95221 0 0 0 0 13.805553c0.648883 10.673013-4.393015 14.320185-14.730398 14.171016-32.735047-0.499715-65.507386-0.23867-98.257349-0.23867z m281.093289-25.224408a28.767162 28.767162 0 0 1-28.506117 29.833718 30.243931 30.243931 0 1 1-0.61905-60.480405 28.744787 28.744787 0 0 1 29.132625 30.654145z" fill="#040404" p-id="3157"></path></svg>